<svg width="656" height="367" viewBox="0 0 656 367" fill="none" xmlns="http://www.w3.org/2000/svg">
<path d="M125.971 224.145V59.7898H148.881V224.145H125.971ZM133.192 224.145V203.974H222.093V224.145H133.192Z" fill="#202D33"/>
<path d="M0 224.145V59.7898H22.9101V224.145H0ZM9.46287 156.162V136.489H98.115V156.162H9.46287ZM9.46287 79.7116V59.7898H109.072V79.7116H9.46287Z" fill="#202D33"/>
<path d="M582.809 172.075C572.018 172.075 562.141 170.249 553.176 166.596C544.377 162.778 536.823 157.299 530.515 150.161C524.206 143.022 519.392 134.14 516.071 123.515C512.751 112.89 511.091 100.771 511.091 87.158C511.091 67.9002 514.245 51.9628 520.554 39.3456C526.862 26.5625 535.495 17.0166 546.452 10.708C557.575 4.2334 570.109 0.996094 584.055 0.996094C598.332 0.996094 610.866 4.2334 621.657 10.708C632.448 17.1826 640.832 26.7285 646.808 39.3456C652.785 51.9628 655.773 67.5682 655.773 86.1619C655.773 100.273 653.947 112.724 650.295 123.515C646.808 134.306 641.745 143.271 635.104 150.41C628.63 157.549 620.91 162.944 611.945 166.596C603.146 170.249 593.434 172.075 582.809 172.075ZM583.806 140.698C587.458 140.698 591.11 139.868 594.763 138.208C598.581 136.382 602.067 133.476 605.222 129.492C608.376 125.508 610.866 120.195 612.692 113.554C614.518 106.748 615.431 98.281 615.431 88.1541C615.431 76.035 614.103 65.8251 611.447 57.5243C608.791 49.2235 605.056 42.915 600.241 38.5986C595.427 34.2822 589.782 32.124 583.308 32.124C578.659 32.124 573.845 33.7011 568.864 36.8554C563.884 40.0097 559.733 45.4882 556.413 53.2909C553.093 61.0936 551.433 72.1336 551.433 86.411C551.433 96.3719 552.263 104.839 553.923 111.811C555.749 118.618 558.156 124.179 561.145 128.496C564.299 132.646 567.785 135.717 571.603 137.71C575.588 139.702 579.655 140.698 583.806 140.698Z" fill="white"/>
<path d="M423.408 172.573C397.841 172.573 378.583 165.268 365.634 150.659C352.685 136.05 346.211 115.049 346.211 87.6561C346.211 68.2323 349.282 52.0458 355.424 39.0966C361.733 25.9814 370.532 16.1865 381.821 9.71191C393.276 3.23731 406.806 0 422.412 0C430.546 0 438.017 0.913091 444.824 2.73927C451.796 4.56543 457.939 7.38769 463.251 11.206C468.73 14.8584 473.212 19.6728 476.699 25.6494C480.351 31.4599 482.924 38.2665 484.418 46.0692L446.816 55.7811C445.986 49.8046 443.994 45.2392 440.839 42.0849C437.851 38.7646 434.448 36.5234 430.629 35.3613C426.811 34.0331 423.159 33.3691 419.672 33.3691C413.862 33.3691 408.798 34.7802 404.482 37.6025C400.165 40.4247 396.596 44.3261 393.774 49.3065C391.118 54.287 389.125 60.0145 387.797 66.4891C386.469 72.9637 385.805 79.8533 385.805 87.158C385.805 90.3123 385.971 94.0477 386.303 98.3641C386.635 102.514 387.133 106.582 387.797 110.566H390.288C390.122 101.933 391.533 94.7947 394.521 89.1502C397.509 83.3397 401.411 78.7742 406.225 75.4539C411.205 71.9676 416.518 69.5604 422.163 68.2323C427.807 66.7381 433.203 65.9911 438.349 65.9911C447.48 65.9911 455.864 67.9003 463.5 71.7186C471.303 75.3709 477.529 80.9324 482.177 88.4031C486.991 95.8738 489.399 105.088 489.399 116.045C489.399 122.685 488.32 129.326 486.161 135.967C484.003 142.607 480.351 148.75 475.204 154.394C470.224 159.873 463.5 164.272 455.034 167.592C446.567 170.913 436.025 172.573 423.408 172.573ZM421.913 140.698C425.898 140.698 429.467 140.2 432.621 139.204C435.942 138.042 438.847 136.465 441.337 134.472C443.827 132.314 445.737 129.824 447.065 127.002C448.393 124.013 449.057 120.693 449.057 117.041C449.057 112.392 447.895 108.325 445.571 104.839C443.412 101.186 440.424 98.364 436.606 96.3719C432.787 94.3797 428.388 93.3836 423.408 93.3836C418.427 93.3836 413.779 94.4627 409.462 96.6209C405.312 98.7791 401.909 101.767 399.252 105.586C396.762 109.404 395.517 113.886 395.517 119.033C395.517 123.017 396.264 126.421 397.758 129.243C399.252 131.899 401.245 134.14 403.735 135.967C406.391 137.627 409.296 138.872 412.451 139.702C415.605 140.366 418.759 140.698 421.913 140.698Z" fill="white"/>
<path d="M255.983 172.075C244.859 172.075 235.148 170.996 226.847 168.838C218.712 166.679 211.905 163.608 206.427 159.624C200.948 155.473 196.632 150.41 193.478 144.433C190.489 138.457 188.58 131.733 187.75 124.262L223.859 112.807C224.191 117.29 225.104 121.357 226.598 125.009C228.258 128.496 230.499 131.484 233.321 133.974C236.144 136.465 239.547 138.374 243.531 139.702C247.516 140.864 251.998 141.445 256.979 141.445C262.789 141.445 267.853 140.615 272.169 138.955C276.651 137.129 280.055 134.472 282.379 130.986C284.869 127.334 286.114 122.851 286.114 117.539C286.114 110.898 283.707 105.42 278.893 101.103C274.244 96.6209 267.023 93.5496 257.228 91.8895C247.433 90.2293 234.982 90.2293 219.874 91.8895V69.7264L274.41 37.6025V35.3613L196.466 36.1083V3.98438H315.001V40.5907L263.702 72.7147V75.2049C279.474 74.0428 291.842 75.4539 300.807 79.4383C309.937 83.4227 316.412 88.9842 320.23 96.1228C324.215 103.261 326.207 110.898 326.207 119.033C326.207 129.99 323.634 139.453 318.487 147.422C313.507 155.224 305.787 161.284 295.328 165.6C285.035 169.917 271.92 172.075 255.983 172.075Z" fill="white"/>
<path d="M597.68 366C595.423 366 593.356 365.618 591.48 364.854C589.639 364.055 588.059 362.908 586.739 361.415C585.419 359.921 584.411 358.063 583.717 355.84C583.022 353.617 582.675 351.081 582.675 348.233C582.675 344.203 583.335 340.869 584.655 338.229C585.975 335.554 587.781 333.557 590.073 332.237C592.401 330.882 595.023 330.205 597.941 330.205C600.928 330.205 603.551 330.882 605.808 332.237C608.066 333.592 609.82 335.589 611.071 338.229C612.321 340.869 612.947 344.134 612.947 348.024C612.947 350.977 612.565 353.582 611.8 355.84C611.071 358.098 610.011 359.973 608.622 361.467C607.267 362.961 605.652 364.089 603.776 364.854C601.935 365.618 599.903 366 597.68 366ZM597.889 359.435C598.653 359.435 599.417 359.261 600.181 358.914C600.98 358.532 601.71 357.924 602.37 357.09C603.03 356.257 603.551 355.145 603.933 353.756C604.315 352.332 604.506 350.56 604.506 348.441C604.506 345.905 604.228 343.769 603.672 342.032C603.116 340.296 602.335 338.976 601.328 338.073C600.32 337.17 599.139 336.718 597.785 336.718C596.812 336.718 595.805 337.048 594.763 337.708C593.721 338.368 592.852 339.514 592.157 341.147C591.463 342.779 591.115 345.089 591.115 348.076C591.115 350.161 591.289 351.932 591.636 353.391C592.019 354.815 592.522 355.979 593.147 356.882C593.807 357.75 594.537 358.393 595.336 358.81C596.169 359.227 597.02 359.435 597.889 359.435Z" fill="white"/>
<path d="M552.345 366.104C546.996 366.104 542.966 364.576 540.257 361.519C537.548 358.462 536.193 354.068 536.193 348.337C536.193 344.273 536.836 340.886 538.121 338.177C539.441 335.433 541.282 333.383 543.644 332.029C546.041 330.674 548.871 329.997 552.137 329.997C553.839 329.997 555.402 330.188 556.826 330.57C558.285 330.952 559.57 331.542 560.682 332.341C561.828 333.105 562.766 334.113 563.495 335.363C564.259 336.579 564.798 338.003 565.11 339.636L557.243 341.668C557.069 340.417 556.652 339.462 555.992 338.802C555.367 338.107 554.655 337.638 553.856 337.395C553.057 337.117 552.293 336.978 551.563 336.978C550.348 336.978 549.288 337.274 548.385 337.864C547.482 338.455 546.735 339.271 546.145 340.313C545.589 341.355 545.172 342.553 544.894 343.908C544.616 345.263 544.477 346.704 544.477 348.233C544.477 348.893 544.512 349.674 544.582 350.577C544.651 351.446 544.755 352.297 544.894 353.13H545.415C545.381 351.324 545.676 349.83 546.301 348.649C546.926 347.434 547.743 346.479 548.75 345.784C549.792 345.054 550.903 344.551 552.085 344.273C553.266 343.96 554.394 343.804 555.471 343.804C557.382 343.804 559.136 344.203 560.734 345.002C562.366 345.766 563.669 346.93 564.641 348.493C565.649 350.056 566.152 351.984 566.152 354.277C566.152 355.666 565.927 357.055 565.475 358.445C565.023 359.834 564.259 361.119 563.182 362.3C562.14 363.447 560.734 364.367 558.962 365.062C557.191 365.757 554.985 366.104 552.345 366.104ZM552.032 359.435C552.866 359.435 553.613 359.331 554.273 359.122C554.968 358.879 555.575 358.549 556.096 358.132C556.617 357.681 557.017 357.16 557.295 356.569C557.573 355.944 557.712 355.249 557.712 354.485C557.712 353.512 557.468 352.661 556.982 351.932C556.531 351.168 555.905 350.577 555.106 350.16C554.308 349.744 553.387 349.535 552.345 349.535C551.303 349.535 550.33 349.761 549.427 350.213C548.559 350.664 547.847 351.289 547.291 352.088C546.77 352.887 546.509 353.825 546.509 354.902C546.509 355.736 546.666 356.448 546.978 357.038C547.291 357.594 547.708 358.063 548.229 358.445C548.785 358.792 549.393 359.053 550.052 359.226C550.712 359.365 551.372 359.435 552.032 359.435Z" fill="white"/>
<path d="M505.331 366C503.004 366 500.972 365.774 499.235 365.323C497.533 364.871 496.109 364.228 494.962 363.395C493.816 362.526 492.913 361.467 492.253 360.216C491.628 358.966 491.228 357.559 491.055 355.996L498.61 353.599C498.679 354.537 498.87 355.388 499.183 356.152C499.53 356.882 499.999 357.507 500.59 358.028C501.18 358.549 501.892 358.949 502.726 359.227C503.559 359.47 504.497 359.591 505.539 359.591C506.755 359.591 507.814 359.418 508.718 359.07C509.655 358.688 510.368 358.132 510.854 357.403C511.375 356.639 511.635 355.701 511.635 354.589C511.635 353.2 511.132 352.054 510.124 351.151C509.152 350.213 507.641 349.57 505.591 349.223C503.542 348.875 500.937 348.875 497.776 349.223V344.586L509.187 337.864V337.395L492.878 337.552V330.83H517.679V338.489L506.946 345.211V345.732C510.246 345.489 512.834 345.784 514.709 346.618C516.62 347.451 517.975 348.615 518.774 350.108C519.607 351.602 520.024 353.2 520.024 354.902C520.024 357.194 519.486 359.174 518.409 360.842C517.367 362.474 515.752 363.742 513.563 364.645C511.41 365.548 508.666 366 505.331 366Z" fill="white"/>
<path d="M422.167 365.27V330.882H436.808C438.719 330.882 440.456 331.039 442.019 331.351C443.582 331.629 444.954 332.063 446.135 332.654C447.351 333.21 448.375 333.904 449.209 334.738C450.043 335.537 450.668 336.475 451.085 337.552C451.502 338.594 451.71 339.757 451.71 341.042C451.71 342.258 451.519 343.352 451.137 344.325C450.755 345.298 450.164 346.149 449.365 346.878C448.601 347.607 447.629 348.198 446.448 348.649C445.267 349.101 443.894 349.431 442.331 349.639V350.421C444.311 350.629 445.84 351.081 446.916 351.776C448.028 352.436 448.879 353.321 449.469 354.433C450.06 355.544 450.581 356.882 451.033 358.445L453.013 365.27H443.686L442.175 358.966C441.862 357.576 441.428 356.5 440.872 355.735C440.351 354.971 439.674 354.45 438.84 354.172C438.007 353.86 436.965 353.703 435.714 353.703H430.556V365.27H422.167ZM430.556 347.503H436.235C438.354 347.503 440.004 347.086 441.185 346.253C442.366 345.419 442.957 344.117 442.957 342.345C442.957 340.608 442.418 339.323 441.341 338.489C440.265 337.656 438.632 337.239 436.444 337.239H430.556V347.503Z" fill="white"/>
<path d="M377.263 365.27V330.882H385.704V365.27H377.263ZM383.359 365.27V358.497H404.565V365.27H383.359ZM383.359 350.994V344.898H401.908V350.994H383.359ZM383.359 337.604V330.882H404.409V337.604H383.359Z" fill="white"/>
<path d="M332.552 365.27V358.497H342.504C344.31 358.497 345.821 358.115 347.037 357.351C348.253 356.587 349.156 355.44 349.746 353.912C350.371 352.384 350.684 350.473 350.684 348.181C350.684 346.34 350.493 344.759 350.111 343.439C349.729 342.119 349.156 341.042 348.392 340.209C347.662 339.34 346.707 338.698 345.526 338.281C344.38 337.864 343.025 337.656 341.462 337.656H332.552V330.882H341.149C345.422 330.882 348.913 331.56 351.622 332.914C354.331 334.269 356.311 336.214 357.562 338.75C358.812 341.251 359.437 344.255 359.437 347.764C359.437 350.473 359.107 352.818 358.447 354.798C357.822 356.778 356.954 358.445 355.842 359.8C354.731 361.119 353.446 362.196 351.987 363.03C350.562 363.829 349.052 364.402 347.454 364.749C345.891 365.097 344.327 365.27 342.764 365.27H332.552ZM328.644 365.27V330.882H337.033V365.27H328.644Z" fill="white"/>
<path d="M300.887 365.27V330.882H309.432V365.27H300.887ZM307.817 327.287H301.513L305.472 318.221H313.653L307.817 327.287Z" fill="white"/>
<path d="M262.394 365.27V330.882H270.783V365.27H262.394ZM263.905 365.27V358.236H284.799V365.27H263.905Z" fill="white"/>
<path d="M580.23 302.948C577.729 302.948 575.523 302.531 573.612 301.697C571.737 300.864 570.139 299.665 568.819 298.102C567.534 296.539 566.561 294.681 565.901 292.527C565.241 290.339 564.911 287.89 564.911 285.181C564.911 281.221 565.571 277.921 566.891 275.281C568.211 272.606 570.035 270.592 572.362 269.237C574.689 267.882 577.329 267.205 580.282 267.205C582.609 267.205 584.71 267.605 586.586 268.403C588.462 269.202 590.06 270.383 591.38 271.946C592.734 273.51 593.776 275.42 594.506 277.678C595.235 279.901 595.6 282.437 595.6 285.285C595.6 287.959 595.253 290.391 594.558 292.579C593.898 294.733 592.908 296.591 591.588 298.154C590.303 299.683 588.705 300.864 586.794 301.697C584.919 302.531 582.73 302.948 580.23 302.948ZM580.282 298.832C582.505 298.832 584.38 298.311 585.909 297.269C587.472 296.192 588.653 294.663 589.452 292.683C590.285 290.669 590.702 288.237 590.702 285.389C590.702 282.437 590.285 279.936 589.452 277.886C588.618 275.802 587.42 274.204 585.857 273.093C584.294 271.981 582.4 271.425 580.177 271.425C578.059 271.425 576.218 271.964 574.654 273.041C573.091 274.117 571.893 275.681 571.059 277.73C570.226 279.779 569.809 282.298 569.809 285.285C569.809 287.438 570.035 289.366 570.486 291.068C570.973 292.736 571.65 294.16 572.518 295.341C573.421 296.487 574.516 297.355 575.801 297.946C577.121 298.536 578.614 298.832 580.282 298.832Z" fill="white"/>
<path d="M531.187 302.948C528.373 302.948 525.855 302.305 523.632 301.02C521.443 299.7 519.724 297.737 518.473 295.132C517.223 292.527 516.598 289.227 516.598 285.233C516.598 282.419 516.945 279.918 517.64 277.73C518.335 275.507 519.342 273.614 520.662 272.051C522.016 270.488 523.666 269.289 525.612 268.456C527.557 267.622 529.815 267.205 532.385 267.205C534.295 267.205 536.015 267.448 537.543 267.935C539.106 268.421 540.461 269.116 541.607 270.019C542.754 270.922 543.674 272.033 544.369 273.353C545.098 274.673 545.55 276.167 545.723 277.834L541.138 279.137C540.999 277.261 540.496 275.767 539.627 274.656C538.759 273.51 537.682 272.676 536.397 272.155C535.112 271.634 533.74 271.373 532.281 271.373C530.162 271.373 528.304 271.842 526.706 272.78C525.108 273.718 523.857 275.212 522.954 277.261C522.051 279.276 521.6 281.898 521.6 285.129C521.6 287.664 521.878 289.8 522.433 291.537C522.989 293.274 523.736 294.681 524.674 295.758C525.612 296.8 526.706 297.564 527.956 298.05C529.241 298.502 530.596 298.727 532.02 298.727C533.861 298.727 535.442 298.38 536.762 297.685C538.082 296.991 539.141 295.949 539.94 294.559C540.774 293.135 541.295 291.346 541.503 289.193H533.635V285.389H546.244V290.547V302.27H542.337L543.327 292.892H542.545C542.094 295.15 541.381 297.025 540.409 298.519C539.471 299.978 538.238 301.089 536.71 301.854C535.216 302.583 533.375 302.948 531.187 302.948Z" fill="white"/>
<path d="M471.977 302.27V267.882H483.961C485.698 267.882 487.278 268.021 488.702 268.299C490.161 268.577 491.446 268.994 492.558 269.55C493.704 270.105 494.659 270.783 495.424 271.582C496.223 272.381 496.813 273.318 497.195 274.395C497.612 275.437 497.82 276.601 497.82 277.886C497.82 279.102 497.629 280.213 497.247 281.221C496.9 282.228 496.361 283.114 495.632 283.878C494.903 284.642 493.999 285.267 492.923 285.754C491.846 286.205 490.595 286.518 489.171 286.692V287.369C490.422 287.508 491.516 287.838 492.454 288.359C493.392 288.88 494.191 289.644 494.85 290.651C495.51 291.624 496.084 292.927 496.57 294.559L498.758 302.27H493.6L491.829 295.236C491.516 293.812 490.977 292.666 490.213 291.798C489.484 290.929 488.563 290.287 487.452 289.87C486.34 289.453 485.038 289.245 483.544 289.245H476.771V302.27H471.977ZM476.771 285.337H483.544C486.636 285.337 488.963 284.781 490.526 283.67C492.124 282.558 492.923 280.856 492.923 278.563C492.923 276.271 492.158 274.586 490.63 273.509C489.137 272.398 486.809 271.842 483.648 271.842H476.771V285.337Z" fill="white"/>
<path d="M436.919 302.948C435.043 302.948 433.341 302.739 431.813 302.322C430.284 301.94 428.947 301.367 427.801 300.603C426.654 299.804 425.682 298.849 424.883 297.737C424.119 296.626 423.528 295.358 423.111 293.934C422.729 292.51 422.538 290.929 422.538 289.192V267.882H427.332V289.036C427.332 291.12 427.697 292.874 428.426 294.299C429.155 295.688 430.232 296.747 431.656 297.477C433.081 298.206 434.835 298.571 436.919 298.571C439.072 298.571 440.844 298.224 442.233 297.529C443.657 296.8 444.717 295.723 445.412 294.299C446.141 292.874 446.506 291.12 446.506 289.036V267.882H451.247V289.192C451.247 293.569 450.031 296.956 447.6 299.353C445.168 301.749 441.608 302.948 436.919 302.948Z" fill="white"/>
<path d="M376.622 302.27V267.882H389.231C391.142 267.882 392.879 268.056 394.442 268.403C396.04 268.751 397.394 269.289 398.506 270.019C399.617 270.713 400.468 271.634 401.059 272.78C401.684 273.926 401.997 275.298 401.997 276.896C401.997 278.216 401.736 279.38 401.215 280.387C400.694 281.394 399.86 282.211 398.714 282.836C397.603 283.461 396.126 283.947 394.285 284.295V284.868C397.481 285.146 399.791 286.014 401.215 287.473C402.674 288.932 403.403 290.842 403.403 293.204C403.403 295.15 402.935 296.8 401.997 298.154C401.094 299.474 399.687 300.499 397.776 301.228C395.901 301.923 393.469 302.27 390.482 302.27H376.622ZM381.208 298.206H390.951C393.556 298.206 395.484 297.772 396.734 296.904C398.019 296.001 398.662 294.629 398.662 292.788C398.662 290.669 397.776 289.088 396.005 288.046C394.268 286.969 391.628 286.431 388.085 286.431H381.208V298.206ZM381.208 282.888H387.147C390.551 282.888 393.087 282.436 394.754 281.533C396.422 280.595 397.255 279.206 397.255 277.365C397.255 275.524 396.526 274.152 395.067 273.249C393.643 272.346 391.472 271.894 388.554 271.894H381.208V282.888Z" fill="white"/>
<path d="M350.85 302.27V267.882H355.695V302.27H350.85Z" fill="white"/>
<path d="M304.979 302.27V267.882H316.962C318.699 267.882 320.28 268.021 321.704 268.299C323.163 268.577 324.448 268.994 325.559 269.55C326.706 270.105 327.661 270.783 328.425 271.582C329.224 272.381 329.814 273.318 330.197 274.395C330.613 275.437 330.822 276.601 330.822 277.886C330.822 279.102 330.631 280.213 330.249 281.221C329.901 282.228 329.363 283.114 328.634 283.878C327.904 284.642 327.001 285.267 325.924 285.754C324.847 286.205 323.597 286.518 322.173 286.692V287.369C323.423 287.508 324.517 287.838 325.455 288.359C326.393 288.88 327.192 289.644 327.852 290.651C328.512 291.624 329.085 292.927 329.571 294.559L331.76 302.27H326.601L324.83 295.236C324.517 293.812 323.979 292.666 323.215 291.798C322.485 290.929 321.565 290.287 320.453 289.87C319.342 289.453 318.039 289.245 316.546 289.245H309.772V302.27H304.979ZM309.772 285.337H316.546C319.637 285.337 321.964 284.781 323.527 283.67C325.125 282.558 325.924 280.856 325.924 278.563C325.924 276.271 325.16 274.586 323.632 273.509C322.138 272.398 319.811 271.842 316.65 271.842H309.772V285.337Z" fill="white"/>
<path d="M263.28 302.27V267.882H268.073V302.27H263.28ZM265.156 287.525V283.409H284.903V287.525H265.156ZM265.156 272.103V267.882H287.143V272.103H265.156Z" fill="white"/>
<path d="M598.81 239.27L610.898 204.882H617.88L629.968 239.27H624.81L614.702 208.894H614.077L603.969 239.27H598.81ZM604.542 231.559V227.912H624.81V231.559H604.542Z" fill="white"/>
<path d="M543.238 239.27V204.882H550.637L562.048 234.268H562.308L573.667 204.882H580.805V239.27H576.272L576.584 209.728H576.168L564.34 239.27H559.651L547.928 209.676H547.511L547.823 239.27H543.238Z" fill="white"/>
<path d="M494.093 239.27L506.181 204.882H513.163L525.251 239.27H520.093L509.985 208.894H509.36L499.252 239.27H494.093ZM499.825 231.559V227.912H520.093V231.559H499.825Z" fill="white"/>
<path d="M451.089 239.27V204.882H463.073C464.81 204.882 466.39 205.021 467.814 205.299C469.273 205.577 470.558 205.994 471.67 206.55C472.816 207.105 473.771 207.783 474.536 208.582C475.334 209.381 475.925 210.318 476.307 211.395C476.724 212.437 476.932 213.601 476.932 214.886C476.932 216.102 476.741 217.213 476.359 218.221C476.012 219.228 475.473 220.114 474.744 220.878C474.015 221.642 473.111 222.267 472.035 222.754C470.958 223.205 469.707 223.518 468.283 223.692V224.369C469.534 224.508 470.628 224.838 471.566 225.359C472.504 225.88 473.302 226.644 473.962 227.651C474.622 228.624 475.196 229.927 475.682 231.559L477.87 239.27H472.712L470.94 232.236C470.628 230.812 470.089 229.666 469.325 228.798C468.596 227.929 467.675 227.287 466.564 226.87C465.452 226.453 464.15 226.245 462.656 226.245H455.883V239.27H451.089ZM455.883 222.337H462.656C465.748 222.337 468.075 221.781 469.638 220.67C471.236 219.558 472.035 217.856 472.035 215.563C472.035 213.271 471.27 211.586 469.742 210.509C468.248 209.398 465.921 208.842 462.76 208.842H455.883V222.337Z" fill="white"/>
<path d="M416.063 239.948C413.25 239.948 410.731 239.305 408.508 238.02C406.32 236.7 404.601 234.737 403.35 232.132C402.1 229.527 401.474 226.227 401.474 222.233C401.474 219.419 401.822 216.918 402.516 214.73C403.211 212.507 404.219 210.614 405.538 209.051C406.893 207.488 408.543 206.289 410.488 205.456C412.433 204.622 414.691 204.205 417.262 204.205C419.172 204.205 420.892 204.448 422.42 204.935C423.983 205.421 425.338 206.116 426.484 207.019C427.63 207.922 428.551 209.033 429.245 210.353C429.975 211.673 430.426 213.167 430.6 214.834L426.015 216.137C425.876 214.261 425.372 212.767 424.504 211.656C423.636 210.51 422.559 209.676 421.274 209.155C419.988 208.634 418.616 208.373 417.157 208.373C415.039 208.373 413.18 208.842 411.582 209.78C409.985 210.718 408.734 212.212 407.831 214.261C406.928 216.276 406.476 218.898 406.476 222.129C406.476 224.664 406.754 226.8 407.31 228.537C407.866 230.274 408.613 231.681 409.55 232.758C410.488 233.8 411.582 234.564 412.833 235.05C414.118 235.502 415.473 235.727 416.897 235.727C418.738 235.727 420.318 235.38 421.638 234.685C422.958 233.991 424.018 232.949 424.817 231.559C425.65 230.135 426.171 228.346 426.38 226.193H418.512V222.389H431.121V227.547V239.27H427.213L428.203 229.892H427.422C426.97 232.15 426.258 234.025 425.286 235.519C424.348 236.978 423.115 238.089 421.586 238.854C420.093 239.583 418.252 239.948 416.063 239.948Z" fill="white"/>
<path d="M367.513 239.948C365.012 239.948 362.806 239.531 360.895 238.697C359.02 237.864 357.422 236.665 356.102 235.102C354.817 233.539 353.844 231.681 353.184 229.527C352.524 227.339 352.194 224.89 352.194 222.181C352.194 218.221 352.854 214.921 354.174 212.281C355.494 209.606 357.318 207.592 359.645 206.237C361.972 204.882 364.612 204.205 367.565 204.205C369.892 204.205 371.993 204.605 373.869 205.403C375.745 206.202 377.343 207.383 378.663 208.946C380.017 210.51 381.059 212.42 381.789 214.678C382.518 216.901 382.883 219.437 382.883 222.285C382.883 224.959 382.536 227.391 381.841 229.579C381.181 231.733 380.191 233.591 378.871 235.154C377.586 236.683 375.988 237.864 374.078 238.697C372.202 239.531 370.014 239.948 367.513 239.948ZM367.565 235.832C369.788 235.832 371.663 235.311 373.192 234.269C374.755 233.192 375.936 231.663 376.735 229.683C377.568 227.669 377.985 225.237 377.985 222.389C377.985 219.437 377.568 216.936 376.735 214.886C375.901 212.802 374.703 211.204 373.14 210.093C371.577 208.981 369.684 208.425 367.46 208.425C365.342 208.425 363.501 208.964 361.938 210.041C360.374 211.117 359.176 212.681 358.342 214.73C357.509 216.779 357.092 219.298 357.092 222.285C357.092 224.438 357.318 226.366 357.769 228.068C358.256 229.736 358.933 231.16 359.801 232.341C360.704 233.487 361.799 234.355 363.084 234.946C364.404 235.536 365.897 235.832 367.565 235.832Z" fill="white"/>
<path d="M307.574 239.27V204.882H319.557C321.294 204.882 322.875 205.021 324.299 205.299C325.758 205.577 327.043 205.994 328.154 206.55C329.301 207.105 330.256 207.783 331.02 208.582C331.819 209.381 332.409 210.318 332.792 211.395C333.208 212.437 333.417 213.601 333.417 214.886C333.417 216.102 333.226 217.213 332.844 218.221C332.496 219.228 331.958 220.114 331.228 220.878C330.499 221.642 329.596 222.267 328.519 222.754C327.442 223.205 326.192 223.518 324.768 223.692V224.369C326.018 224.508 327.112 224.838 328.05 225.359C328.988 225.88 329.787 226.644 330.447 227.651C331.107 228.624 331.68 229.927 332.166 231.559L334.355 239.27H329.196L327.425 232.236C327.112 230.812 326.574 229.666 325.81 228.798C325.08 227.929 324.16 227.287 323.048 226.87C321.937 226.453 320.634 226.245 319.141 226.245H312.367V239.27H307.574ZM312.367 222.337H319.141C322.232 222.337 324.559 221.781 326.122 220.67C327.72 219.558 328.519 217.856 328.519 215.563C328.519 213.271 327.755 211.586 326.227 210.509C324.733 209.398 322.406 208.842 319.245 208.842H312.367V222.337Z" fill="white"/>
<path d="M265.833 228.746V224.681H274.274C277.574 224.681 280.057 224.056 281.724 222.806C283.392 221.521 284.225 219.471 284.225 216.658C284.225 214.052 283.444 212.107 281.881 210.822C280.352 209.502 277.99 208.842 274.795 208.842H265.833V204.882H274.899C277.157 204.882 279.154 205.143 280.891 205.664C282.662 206.185 284.156 206.949 285.372 207.956C286.587 208.964 287.508 210.214 288.133 211.708C288.793 213.167 289.123 214.869 289.123 216.814C289.123 219.384 288.533 221.555 287.352 223.327C286.171 225.098 284.434 226.453 282.141 227.391C279.849 228.294 277.035 228.746 273.701 228.746H265.833ZM263.28 239.27V204.882H268.073V239.27H263.28Z" fill="white"/>
<path d="M188.428 267.73C191.249 264.909 191.249 260.336 188.428 257.515C185.608 254.695 181.034 254.695 178.214 257.515C175.393 260.336 175.393 264.909 178.214 267.73C181.034 270.55 185.608 270.55 188.428 267.73Z" fill="white"/>
<path d="M191.663 267.589C190.299 270.854 187.074 273.145 183.318 273.145C182.035 273.145 180.819 272.876 179.71 272.393C174.201 270.182 171.184 263.551 170.828 258.189C170.754 257.047 169.827 256.16 168.685 256.16C167.496 256.16 166.548 257.127 166.535 258.317C166.448 268.301 170.822 276.343 170.822 276.343C156.893 289.761 169.491 305.53 169.491 305.53C176.378 276.807 196.259 276.74 202.454 277.452L206.733 272.386C199.78 267.447 191.663 267.589 191.663 267.589Z" fill="white"/>
<path d="M149.785 288.255C151.78 284.802 150.598 280.388 147.145 278.392C143.691 276.397 139.277 277.579 137.281 281.033C135.286 284.486 136.468 288.9 139.922 290.896C143.375 292.891 147.79 291.709 149.785 288.255Z" fill="#202D33"/>
<path d="M152.009 279.904C154.152 282.719 154.528 286.656 152.647 289.908C152.009 291.017 151.162 291.944 150.195 292.656C145.525 296.325 138.269 295.619 133.452 293.248C132.43 292.744 131.194 293.1 130.623 294.087C130.032 295.115 130.388 296.426 131.416 297.024C140.023 302.089 149.167 302.325 149.167 302.325C153.823 321.097 173.778 318.073 173.778 318.073C152.345 297.749 162.228 280.495 165.944 275.49L163.693 269.248C155.939 272.796 152.002 279.904 152.002 279.904H152.009Z" fill="#202D33"/>
<path d="M148.965 326.506C146.97 323.052 142.556 321.87 139.102 323.865C135.649 325.861 134.466 330.275 136.462 333.728C138.457 337.182 142.871 338.364 146.325 336.369C149.778 334.373 150.961 329.959 148.965 326.506Z" fill="#075367"/>
<path d="M142.838 320.398C146.345 319.948 149.94 321.594 151.821 324.846C152.459 325.955 152.842 327.151 152.976 328.347C153.816 334.219 149.583 340.152 145.122 343.141C144.175 343.78 143.866 345.023 144.437 346.01C145.028 347.038 146.345 347.381 147.373 346.796C156.067 341.878 160.837 334.071 160.837 334.071C179.422 339.426 186.779 320.627 186.779 320.627C158.459 329.025 148.461 311.845 145.982 306.121L139.452 304.945C138.652 313.438 142.831 320.392 142.831 320.392L142.838 320.398Z" fill="#075367"/>
<path d="M185.263 359.822C188.726 357.843 189.929 353.431 187.95 349.967C185.97 346.504 181.558 345.301 178.095 347.281C174.632 349.26 173.429 353.672 175.408 357.135C177.388 360.599 181.8 361.802 185.263 359.822Z" fill="white"/>
<path d="M173.334 348.59C174.698 345.325 177.923 343.034 181.679 343.034C182.962 343.034 184.178 343.302 185.287 343.786C190.796 345.997 193.813 352.628 194.169 357.99C194.243 359.132 195.17 360.019 196.313 360.019C197.502 360.019 198.449 359.051 198.463 357.862C198.55 347.878 194.176 339.836 194.176 339.836C208.104 326.418 195.506 310.649 195.506 310.649C188.62 339.372 168.739 339.439 162.544 338.727L158.264 343.793C165.218 348.731 173.334 348.59 173.334 348.59Z" fill="white"/>
<path d="M215.213 327.923C213.217 331.377 214.4 335.791 217.853 337.786C221.307 339.782 225.721 338.599 227.716 335.146C229.712 331.692 228.529 327.278 225.076 325.283C221.622 323.287 217.208 324.47 215.213 327.923Z" fill="#202D33"/>
<path d="M212.989 336.281C210.845 333.466 210.469 329.529 212.35 326.277C212.989 325.168 213.835 324.241 214.803 323.529C219.472 319.861 226.729 320.566 231.546 322.938C232.567 323.442 233.803 323.086 234.375 322.098C234.966 321.07 234.61 319.76 233.582 319.162C224.975 314.096 215.831 313.861 215.831 313.861C211.175 295.088 191.22 298.112 191.22 298.112C212.653 318.436 202.769 335.69 199.054 340.696L201.305 346.937C209.058 343.39 212.995 336.281 212.995 336.281H212.989Z" fill="#202D33"/>
<path d="M216.032 289.673C218.028 293.127 222.442 294.309 225.895 292.314C229.349 290.318 230.531 285.904 228.536 282.45C226.541 278.997 222.126 277.814 218.673 279.81C215.219 281.805 214.037 286.22 216.032 289.673Z" fill="#075367"/>
<path d="M222.153 295.78C218.646 296.231 215.051 294.585 213.17 291.333C212.532 290.224 212.149 289.028 212.014 287.832C211.175 281.96 215.407 276.027 219.869 273.037C220.816 272.399 221.125 271.156 220.554 270.168C219.963 269.14 218.646 268.798 217.618 269.382C208.924 274.301 204.153 282.108 204.153 282.108C185.569 276.753 178.212 295.552 178.212 295.552C206.532 287.154 216.529 304.334 219.009 310.058L225.539 311.234C226.339 302.741 222.16 295.787 222.16 295.787L222.153 295.78Z" fill="#075367"/>
</svg>
